<?xml version="1.0" encoding="UTF-8" standalone="yes"?>
<!DOCTYPE svg PUBLIC "-//W3C//DTD SVG 1.1//EN" "http://www.w3.org/Graphics/SVG/1.1/DTD/svg11.dtd">

<svg width="400" height="225" viewBox="0 0 400 225" xmlns="http://www.w3.org/2000/svg" xmlns:xlink="http://www.w3.org/1999/xlink" version="1.1" baseProfile="full">
    <g transform="scale(1.000000,-1.000000) translate(0,-225)">
        <path d="M 172.863843 177.334799 L 172.258443 175.999899 L 173.495243 175.999899 Z M 174.914143 172.999899 L 170.897843 172.999899 L 168.630143 167.999899 L 177.278943 167.999899 Z M 178.697943 164.999899 L 167.269543 164.999899 L 165.001843 159.999899 L 181.062743 159.999899 Z M 182.481643 156.999899 L 163.641243 156.999899 L 161.373543 151.999899 L 184.846543 151.999899 Z M 186.265443 148.999899 L 160.012943 148.999899 L 157.745243 143.999899 L 188.630243 143.999899 Z M 190.049243 140.999899 L 156.384643 140.999899 L 154.116943 135.999899 L 192.414043 135.999899 Z M 0.999943 138.808399 L 2.038543 135.999899 L 5.731043 135.999899 Z M 344.727643 138.808399 L 340.080243 135.999899 L 343.670943 135.999899 Z M 10.784743 132.999899 L 3.147943 132.999899 L 4.997043 127.999899 L 19.207643 127.999899 Z M 193.832943 132.999899 L 152.756343 132.999899 L 150.488643 127.999899 L 196.197843 127.999899 Z M 342.542143 132.999899 L 335.115943 132.999899 L 326.842143 127.999899 L 340.660943 127.999899 Z M 24.261343 124.999899 L 6.106443 124.999899 L 7.955543 119.999899 L 32.684143 119.999899 Z M 197.616743 124.999899 L 149.128043 124.999899 L 146.860343 119.999899 L 199.981643 119.999899 Z M 339.532143 124.999899 L 321.877843 124.999899 L 313.604043 119.999899 L 337.650843 119.999899 Z M 37.737843 116.999899 L 9.064943 116.999899 L 10.914043 111.999899 L 46.160743 111.999899 Z M 201.400543 116.999899 L 145.499743 116.999899 L 143.232043 111.999899 L 203.765343 111.999899 Z M 336.522143 116.999899 L 308.639743 116.999899 L 300.365843 111.999899 L 334.640843 111.999899 Z M 51.214443 108.999899 L 12.023443 108.999899 L 13.872543 103.999899 L 59.637243 103.999899 Z M 205.184243 108.999899 L 141.871443 108.999899 L 139.603743 103.999899 L 207.549143 103.999899 Z M 333.512143 108.999899 L 295.401543 108.999899 L 287.127743 103.999899 L 331.630843 103.999899 Z M 64.690943 100.999899 L 14.981943 100.999899 L 16.830943 95.999899 L 73.113843 95.999899 Z M 208.968043 100.999899 L 138.243143 100.999899 L 135.975443 95.999899 L 211.332943 95.999899 Z M 330.502043 100.999899 L 282.163443 100.999899 L 273.889643 95.999899 L 328.620843 95.999899 Z M 78.167543 92.999899 L 17.940443 92.999899 L 19.789443 87.999899 L 86.590343 87.999899 Z M 212.751843 92.999899 L 134.614843 92.999899 L 132.347143 87.999899 L 215.116643 87.999899 Z M 327.492043 92.999899 L 268.925343 92.999899 L 260.651543 87.999899 L 325.610843 87.999899 Z M 91.644043 84.999899 L 20.898943 84.999899 L 22.747943 79.999899 L 100.066943 79.999899 Z M 216.535543 84.999899 L 130.986543 84.999899 L 128.718843 79.999899 L 218.900443 79.999899 Z M 324.482043 84.999899 L 255.687243 84.999899 L 247.413343 79.999899 L 322.600743 79.999899 Z M 105.120643 76.999899 L 23.857343 76.999899 L 25.706443 71.999899 L 113.543443 71.999899 Z M 220.319343 76.999899 L 127.358243 76.999899 L 125.090543 71.999899 L 222.684243 71.999899 Z M 321.472043 76.999899 L 242.449143 76.999899 L 234.175243 71.999899 L 319.590743 71.999899 Z M 318.462043 68.999899 L 229.210943 68.999899 L 225.238543 66.599299 L 224.103143 68.999899 L 123.729943 68.999899 L 122.641143 66.599299 L 118.597143 68.999899 L 26.815843 68.999899 L 28.664943 63.999899 L 316.580743 63.999899 Z M 315.451943 60.999899 L 29.774343 60.999899 L 31.623343 55.999999 L 313.570743 55.999999 Z M 312.441943 52.999999 L 32.732843 52.999999 L 34.581843 47.999999 L 310.560743 47.999999 Z M 309.431943 44.999999 L 35.691243 44.999999 L 37.540343 39.999999 L 307.550743 39.999999 Z M 306.421943 36.999999 L 38.649743 36.999999 L 40.498843 31.999999 L 304.540643 31.999999 Z M 303.411943 28.999999 L 41.608243 28.999999 L 43.457343 23.999999 L 301.530643 23.999999 Z M 300.401943 20.999999 L 44.566743 20.999999 L 46.415743 15.999999 L 298.520643 15.999999 Z M 297.391843 12.999999 L 47.525243 12.999999 L 49.374243 7.999999 L 295.510643 7.999999 Z M 294.381843 4.999999 L 50.483743 4.999999 L 51.962943 0.999999 L 292.876843 0.999999 Z" transform="scale(1.000000,1.000000) translate(27.136157,5.573201)" fill="#ffffff" opacity="1.000000"></path>
        <path d="M 5.872410 167.804907 L 61.952084 4.311130 L 59.587329 6.000000 L 324.689120 6.000000 L 322.328727 4.323739 L 379.385379 167.817515 L 383.110503 164.899139 L 251.624642 79.231405 C 250.331220 78.388695 248.590692 78.908025 247.970521 80.321704 L 190.337324 211.696541 L 194.931119 211.731492 L 139.666078 80.356656 C 139.064708 78.927092 137.320300 78.384345 136.014024 79.220373 L 2.160007 164.888107 L 5.872410 167.804907 Z M 1.142899 166.182647 C 0.374653 168.422378 2.860958 170.375844 4.855302 169.099447 L 138.709319 83.431713 L 135.057265 82.295430 L 190.322307 213.670267 C 191.173743 215.694281 194.033968 215.716043 194.916103 213.705218 L 252.549300 82.330382 L 248.895179 83.420681 L 380.381041 169.088415 C 382.379122 170.390236 384.891931 168.421624 384.106165 166.170038 L 327.049513 2.676261 C 326.699196 1.672442 325.752311 1.000000 324.689120 1.000000 L 59.587329 1.000000 C 58.519236 1.000000 57.569119 1.678559 57.222574 2.688870 L 1.142899 166.182647 Z" transform="scale(1.000000,1.000000) translate(7.373287,4.399560)" fill="#ffffff" opacity="1.000000"></path>
    </g>
</svg>